<?xml version="1.0" encoding="utf-8"?>
<!-- Generator: Adobe Illustrator 17.0.2, SVG Export Plug-In . SVG Version: 6.00 Build 0)  -->
<!DOCTYPE svg PUBLIC "-//W3C//DTD SVG 1.1//EN" "http://www.w3.org/Graphics/SVG/1.1/DTD/svg11.dtd">
<svg version="1.1" id="Layer_1" xmlns="http://www.w3.org/2000/svg" xmlns:xlink="http://www.w3.org/1999/xlink" x="0px" y="0px"
	 width="195.448px" height="40px" viewBox="0 0 195.448 40" enable-background="new 0 0 195.448 40" xml:space="preserve">
<g>
	<path fill="#231F20" d="M23.787,0.242l-9.954,39.666H9.849L0,0.242h5.221l6.62,26.641l6.727-26.641H23.787z"/>
	<path fill="#231F20" d="M26.425,39.961V0.296h5.06v39.665H26.425z"/>
	<path fill="#231F20" d="M43.594,39.961h-7.912V0.296h7.912c3.409,0,5.974,1.058,7.696,3.175c1.578,1.902,2.367,4.665,2.367,8.288
		v16.685c0,3.624-0.788,6.404-2.367,8.342C49.568,38.903,47.004,39.961,43.594,39.961z M40.742,34.902h2.852
		c0.645,0,1.265-0.062,1.857-0.188c0.592-0.125,1.111-0.404,1.559-0.835c0.448-0.43,0.816-1.077,1.104-1.938
		c0.287-0.861,0.431-2.026,0.431-3.498V11.759c0-1.471-0.144-2.637-0.431-3.498c-0.287-0.861-0.655-1.507-1.104-1.938
		c-0.448-0.431-0.967-0.7-1.559-0.808c-0.592-0.107-1.212-0.161-1.857-0.161h-2.852V34.902z"/>
	<path fill="#231F20" d="M61.839,5.355v12.217h7.768v5.059h-7.768v12.271h11.356v5.059H56.779V0.296h16.416v5.059H61.839z"/>
	<path fill="#231F20" d="M86.219,39.907c-1.903,0-3.427-0.341-4.576-1.023c-1.149-0.681-2.009-1.381-2.582-2.099
		c-1.507-1.938-2.26-4.664-2.26-8.181v-17.06c0-3.516,0.753-6.243,2.26-8.181c0.287-0.358,0.636-0.717,1.049-1.077
		c0.412-0.358,0.915-0.69,1.507-0.996c0.592-0.304,1.265-0.555,2.018-0.753c0.753-0.196,1.614-0.296,2.584-0.296
		c1.938,0,3.471,0.342,4.601,1.023s1.983,1.381,2.558,2.099c1.507,1.938,2.26,4.665,2.26,8.181v17.06
		c0,3.517-0.753,6.243-2.26,8.181c-0.575,0.718-1.428,1.418-2.558,2.099C89.689,39.567,88.157,39.907,86.219,39.907z M86.219,5.355
		c-0.396,0-0.834,0.036-1.319,0.108c-0.485,0.073-0.962,0.296-1.426,0.673c-0.468,0.377-0.853,0.987-1.158,1.83
		c-0.305,0.844-0.457,2.037-0.457,3.579v17.06c0,1.579,0.152,2.79,0.457,3.633c0.305,0.844,0.69,1.453,1.158,1.83
		c0.464,0.377,0.941,0.602,1.426,0.673c0.485,0.073,0.923,0.108,1.319,0.108c0.357,0,0.788-0.035,1.291-0.108
		c0.503-0.071,0.986-0.296,1.452-0.673c0.466-0.377,0.851-0.986,1.156-1.83c0.305-0.843,0.459-2.053,0.459-3.633v-17.06
		c0-1.543-0.154-2.736-0.459-3.579c-0.305-0.843-0.69-1.453-1.156-1.83c-0.466-0.377-0.95-0.6-1.452-0.673
		C87.007,5.391,86.576,5.355,86.219,5.355z"/>
	<path fill="#231F20" d="M100.136,39.961c-0.632,0-0.948-0.315-0.948-0.947V0.947c0-0.237,0.089-0.444,0.266-0.621
		c0.177-0.178,0.405-0.267,0.682-0.267h6.275c3.196,0,5.543,0.869,7.045,2.605c1.459,1.698,2.19,4.303,2.19,7.815
		c0,3.514-0.731,6.119-2.19,7.815c-1.501,1.737-3.849,2.605-7.045,2.605h-5.329v18.116
		C101.082,39.645,100.767,39.961,100.136,39.961z M101.082,19.063h5.329c2.565,0,4.439-0.671,5.624-2.013
		c1.144-1.303,1.717-3.492,1.717-6.572c0-3.078-0.573-5.278-1.717-6.6c-1.146-1.322-3.02-1.984-5.624-1.984h-5.329V19.063z"/>
	<path fill="#231F20" d="M145.68,39.901h-12.439c-0.396,0-0.673-0.138-0.829-0.414c-0.159-0.315-0.177-0.611-0.06-0.887
		l17.227-36.706h-16.339c-0.631,0-0.946-0.315-0.946-0.947c0-0.631,0.315-0.947,0.946-0.947h17.821c0.354,0,0.61,0.138,0.767,0.414
		c0.198,0.355,0.217,0.672,0.06,0.947l-17.227,36.705h11.018c0.631,0,0.946,0.316,0.946,0.948c0,0.237-0.088,0.444-0.266,0.621
		C146.181,39.813,145.955,39.901,145.68,39.901z"/>
	<path fill="#231F20" d="M169.891,39.901h-12.437c-0.394,0-0.671-0.138-0.829-0.414c-0.158-0.315-0.179-0.611-0.06-0.887
		l17.229-36.706h-16.34c-0.632,0-0.948-0.315-0.948-0.947c0-0.631,0.315-0.947,0.948-0.947h17.819c0.356,0,0.613,0.138,0.771,0.414
		c0.196,0.355,0.217,0.672,0.06,0.947l-17.229,36.705h11.016c0.631,0,0.948,0.316,0.948,0.948c0,0.237-0.089,0.444-0.266,0.621
		C170.396,39.813,170.168,39.901,169.891,39.901z"/>
	<path fill="#231F20" d="M195.408,38.836c0.079,0.237,0.039,0.464-0.117,0.681c-0.159,0.217-0.357,0.365-0.592,0.444h-0.238
		c-0.473,0-0.769-0.237-0.886-0.71l-2.666-11.485h-10.477l-2.665,11.485c-0.079,0.237-0.228,0.434-0.443,0.592
		c-0.217,0.157-0.445,0.197-0.682,0.118c-0.277-0.079-0.485-0.227-0.622-0.444c-0.138-0.216-0.168-0.444-0.088-0.681l8.819-38.067
		c0.119-0.473,0.415-0.71,0.888-0.71c0.513,0,0.829,0.237,0.948,0.71L195.408,38.836z M190.494,25.93l-4.855-20.839l-4.795,20.839
		H190.494z"/>
	<g>
		<path fill="#E94826" d="M118.28,1.05c-0.074-0.545,0.316-0.991,0.866-0.991h9.039c0.55,0,0.94,0.446,0.866,0.991l-5.115,37.92
			c-0.074,0.545-0.196,0.991-0.271,0.991s-0.198-0.446-0.271-0.991L118.28,1.05z"/>
	</g>
</g>
</svg>
